<svg width="100" height="100" xmlns="http://www.w3.org/2000/svg" version="1.0" preserveAspectRatio="xMidYMid meet">
 <g>
  <title>left2</title>
  <g stroke-width="10" transform="translate(0 100) scale(0.1 -0.1)" fill="#000000" id="svg_1">
   <path d="m347,635c-64,-69 -117,-130 -117,-135c0,-5 53,-66 117,-135c123,-132 147,-146 177,-103c9,12 16,27 16,32c0,5 -44,53 -97,107l-97,99l98,99c83,85 97,103 90,123c-3,13 -12,26 -18,30c-31,21 -56,4 -169,-117z" id="svg_2" stroke="#006400" fill="#dddddd"/>
   <path d="m576,635c-64,-69 -116,-129 -116,-135c0,-6 52,-66 116,-135c123,-132 148,-146 178,-104c8,12 12,29 9,38c-3,9 -47,58 -97,109l-91,92l91,93c50,50 94,99 97,108c3,9 -1,26 -9,38c-30,42 -55,28 -178,-104z" id="svg_3" stroke="#006400" fill="#dddddd"/>
  </g>
 </g>

</svg>