<svg width="200" height="200" xmlns="http://www.w3.org/2000/svg">
 <g id="sound_green">
  <title>sound</title>
  <g id="svg_2" stroke="null" stroke-width="5">
   <g id="svg_3" transform="translate(25.6 25.6) scale(0.8 0.8)" stroke="null">
    <g id="svg_4" fill-opacity="0" fill="#dddddd" fill-rule="nonzero" stroke-miterlimit="10" stroke-dashoffset="0" font-family="none" font-weight="none" font-size="none" text-anchor="none" stroke="null">
     <path d="m-69.5,253l0,-320l320,0l0,320l-320,0z" id="svg_1" stroke="#006400" fill="#dddddd"/>
    </g>
    <g id="svg_5" fill="#e5962c" fill-rule="nonzero" stroke-miterlimit="10" stroke-dashoffset="0" font-family="none" font-weight="none" font-size="none" text-anchor="none" stroke="null">
     <g id="svg_6" transform="translate(0.12814 0.12473) scale(4.26667 4.26667)" stroke="null">
      <g id="svg_7" transform="translate(0 60) scale(0.1 -0.1)" stroke="null">
       <path id="svg_8" d="m247.10944,517.03116l-100,-31l-3,-75c-3,-72 -4,-74 -35,-89c-67,-31 -33,-127 36,-101c30,12 36,30 39,120l3,64l68,23l67,23l0,-45c0,-40 -2,-44 -23,-44c-13,0 -31,-8 -40,-18c-46,-51 21,-120 76,-79c15,11 17,29 15,147l-3,136l-100,-31z" stroke="#006400" fill="#dddddd"/>
      </g>
     </g>
    </g>
   </g>
  </g>
 </g>

</svg>